HIERARCHY
ROOT Hips
{
 OFFSET 0.000000 0.000000 0.000000
 CHANNELS 6 Xposition Yposition Zposition Yrotation Xrotation Zrotation
 JOINT Chest
 {
  OFFSET 0.000000 9.588913 -0.003946
  CHANNELS 3 Yrotation Xrotation Zrotation
  JOINT Chest2
  {
   OFFSET 0.000000 9.541882 0.008053
   CHANNELS 3 Yrotation Xrotation Zrotation
   JOINT Chest3
   {
    OFFSET 0.000000 9.501360 0.000000
    CHANNELS 3 Yrotation Xrotation Zrotation
    JOINT Chest4
    {
     OFFSET 0.000000 9.491660 0.000000
     CHANNELS 3 Yrotation Xrotation Zrotation
     JOINT Neck
     {
      OFFSET 0.000000 14.331917 0.000000
      CHANNELS 3 Yrotation Xrotation Zrotation
      JOINT Head
      {
       OFFSET 0.000000 8.884799 0.017034
       CHANNELS 3 Yrotation Xrotation Zrotation
       End Site
       {
        OFFSET 0.000000 16.896195 0.008993
       }
      }
     }
     JOINT RightCollar
     {
      OFFSET -2.923010 9.499495 0.000000
      CHANNELS 3 Yrotation Xrotation Zrotation
      JOINT RightShoulder
      {
       OFFSET -13.795216 0.000000 0.000000
       CHANNELS 3 Yrotation Xrotation Zrotation
       JOINT RightElbow
       {
        OFFSET -30.272209 0.000000 0.000000
        CHANNELS 3 Yrotation Xrotation Zrotation
        JOINT RightWrist
        {
         OFFSET -24.478199 0.000000 0.000000
         CHANNELS 3 Yrotation Xrotation Zrotation
         End Site
         {
          OFFSET -18.090752 0.000000 0.000000
         }
        }
       }
      }
     }
     JOINT LeftCollar
     {
      OFFSET 2.923010 9.499495 0.000000
      CHANNELS 3 Yrotation Xrotation Zrotation
      JOINT LeftShoulder
      {
       OFFSET 13.795216 0.000000 0.000000
       CHANNELS 3 Yrotation Xrotation Zrotation
       JOINT LeftElbow
       {
        OFFSET 30.272209 0.000000 0.000000
        CHANNELS 3 Yrotation Xrotation Zrotation
        JOINT LeftWrist
        {
         OFFSET 24.478199 0.000000 0.000000
         CHANNELS 3 Yrotation Xrotation Zrotation
         End Site
         {
          OFFSET 18.090752 0.000000 0.000000
         }
        }
       }
      }
     }
    }
   }
  }
 }
 JOINT RightHip
 {
  OFFSET -7.826875 0.019532 0.001973
  CHANNELS 3 Yrotation Xrotation Zrotation
  JOINT RightKnee
  {
   OFFSET 0.000000 -40.546152 -0.001885
   CHANNELS 3 Yrotation Xrotation Zrotation
   JOINT RightAnkle
   {
    OFFSET 0.000000 -39.417092 -0.003189
    CHANNELS 3 Yrotation Xrotation Zrotation
    JOINT RightToe
    {
     OFFSET 0.000000 -7.579396 17.243563
     CHANNELS 3 Yrotation Xrotation Zrotation
     End Site
     {
      OFFSET 0.000000 -1.500329 6.694466
     }
    }
   }
  }
 }
 JOINT LeftHip
 {
  OFFSET 7.826875 0.019532 0.001973
  CHANNELS 3 Yrotation Xrotation Zrotation
  JOINT LeftKnee
  {
   OFFSET 0.000000 -40.546152 -0.001885
   CHANNELS 3 Yrotation Xrotation Zrotation
   JOINT LeftAnkle
   {
    OFFSET 0.000000 -39.417092 -0.003189
    CHANNELS 3 Yrotation Xrotation Zrotation
    JOINT LeftToe
    {
     OFFSET 0.000000 -7.579396 17.243563
     CHANNELS 3 Yrotation Xrotation Zrotation
     End Site
     {
      OFFSET 0.000000 -1.500329 6.694466
     }
    }
   }
  }
 }
}
MOTION
Frames: 14
Frame Time: 0.008333
0.000000 87.345680 0.000000 0.000000 -5.767889 0.000000 0.000000 11.653876 0.000000 0.000000 -5.885988 0.000000 0.000000 -0.000000 0.000000 0.000000 -0.000000 0.000000 0.000000 12.528808 0.000000 0.000000 0.711711 0.000000 0.000000 -0.000000 0.000000 0.000000 -0.000000 0.000000 2.309063 -0.000000 0.000000 -2.309063 -0.000000 -0.000000 0.000000 -0.000000 0.000000 0.000000 0.000000 0.000000 -2.309063 0.000000 0.000000 2.309063 -0.000000 0.000000 0.000000 8.520374 0.000000 0.000000 1.905768 0.000000 -0.000000 -4.658254 0.000000 0.000000 -0.000000 0.000000 0.000000 8.520374 0.000000 0.000000 1.905768 0.000000 -0.000000 -4.658254 0.000000 0.000000 -0.000000 0.000000
-11.858285 89.103602 -4.272618 -135.857705 -6.193918 0.233984 0.995050 1.878322 0.156344 0.565933 1.072660 0.054243 0.707606 1.340738 0.069463 0.565933 1.072660 0.054243 -0.106608 22.330996 0.098328 -0.218972 5.675524 0.206255 -0.785297 2.207027 1.203328 1.534459 -0.816705 86.187192 7.222424 8.673625 4.589837 -0.929317 -4.720803 -1.628026 -1.159843 2.082789 0.618355 -4.412362 -2.107926 -89.451700 -1.445878 3.892309 -0.703296 -0.305314 -1.503908 1.649625 -2.271169 9.638499 2.351302 0.450481 2.369030 -1.121473 8.459130 -4.796224 -2.307730 -0.001423 0.057164 0.003134 0.125273 7.416059 -3.009362 3.217162 5.629976 0.784187 12.688575 -6.977425 1.458013 0.006466 -0.046399 0.000324
-11.861299 89.103367 -4.275704 -135.860386 -6.191184 0.234798 0.997661 1.875819 0.157758 0.567131 1.070889 0.055083 0.709106 1.338522 0.070513 0.567131 1.070889 0.055083 -0.108183 22.328601 0.096480 -0.221323 5.671075 0.203347 -0.791490 2.209217 1.204587 1.538252 -0.822026 86.189179 7.219962 8.676238 4.593480 -0.926362 -4.723819 -1.629730 -1.164996 2.079179 0.616488 -4.411257 -2.107135 -89.454807 -1.444064 3.884301 -0.698582 -0.306497 -1.503572 1.644766 -2.272380 9.641684 2.347315 0.453924 2.361894 -1.119383 8.466562 -4.795246 -2.307928 -0.000902 0.058754 0.002860 0.121308 7.415290 -3.011151 3.213793 5.633727 0.784671 12.693373 -6.982409 1.456998 0.006393 -0.046260 0.000193
-11.864509 89.102997 -4.278856 -135.862738 -6.185759 0.236883 0.999848 1.871987 0.158353 0.568217 1.068320 0.055424 0.710463 1.335310 0.070939 0.568217 1.068320 0.055424 -0.109375 22.326825 0.094859 -0.223041 5.667776 0.200746 -0.797757 2.215346 1.205346 1.543553 -0.830257 86.193399 7.216166 8.677631 4.595941 -0.922329 -4.723047 -1.628035 -1.170933 2.077112 0.616059 -4.404085 -2.107004 -89.458173 -1.441932 3.883110 -0.694853 -0.306200 -1.501611 1.640650 -2.274299 9.641561 2.342056 0.461310 2.356750 -1.115274 8.464470 -4.796594 -2.308797 -0.000283 0.060671 0.002037 0.117247 7.412333 -3.015042 3.209764 5.636308 0.784495 12.703450 -6.987172 1.456591 0.006539 -0.046115 0.000344
-11.867776 89.102523 -4.282121 -135.865766 -6.178930 0.239578 1.002219 1.867566 0.158242 0.569603 1.065667 0.055418 0.712196 1.331993 0.070931 0.569603 1.065667 0.055418 -0.110077 22.324881 0.094037 -0.224090 5.664165 0.199455 -0.804610 2.221883 1.205246 1.550550 -0.836223 86.197136 7.216845 8.675914 4.600991 -0.919581 -4.721956 -1.624966 -1.178188 2.074210 0.616752 -4.390160 -2.107561 -89.461425 -1.440239 3.887611 -0.693243 -0.306520 -1.496490 1.639356 -2.273570 9.638787 2.337373 0.472684 2.354458 -1.110134 8.449846 -4.800161 -2.309737 -0.000142 0.062458 0.000546 0.115559 7.410092 -3.020680 3.204139 5.635017 0.786389 12.715167 -6.991006 1.455433 0.006598 -0.045419 0.000631
-11.870866 89.102010 -4.285891 -135.869601 -6.173000 0.240074 1.005234 1.863351 0.158713 0.571343 1.063298 0.055793 0.714371 1.329031 0.071401 0.571343 1.063298 0.055793 -0.110629 22.322997 0.093648 -0.224986 5.660666 0.198905 -0.811317 2.226995 1.205335 1.552439 -0.839794 86.197946 7.220925 8.678743 4.610021 -0.917683 -4.725927 -1.626582 -1.184229 2.072524 0.617629 -4.382229 -2.109054 -89.463850 -1.440914 3.887297 -0.692825 -0.308012 -1.491881 1.641772 -2.270529 9.636799 2.334674 0.481989 2.352133 -1.104915 8.438841 -4.802835 -2.309962 -0.000399 0.063121 -0.001118 0.115251 7.409981 -3.024951 3.197506 5.631881 0.790817 12.728365 -6.994657 1.451906 0.007281 -0.044324 0.001533
-11.873591 89.101480 -4.289965 -135.871808 -6.167571 0.237821 1.008300 1.859116 0.160013 0.573013 1.061027 0.056877 0.716462 1.326191 0.072758 0.573013 1.061027 0.056877 -0.111711 22.321637 0.092905 -0.226742 5.658142 0.197858 -0.819083 2.230018 1.206833 1.547543 -0.843648 86.194951 7.222709 8.690764 4.622878 -0.914844 -4.735286 -1.633236 -1.189803 2.072673 0.616403 -4.381397 -2.110669 -89.465378 -1.443559 3.882377 -0.691199 -0.307981 -1.488329 1.645939 -2.269333 9.636121 2.334733 0.486593 2.347799 -1.101868 8.437391 -4.802687 -2.308395 -0.001310 0.062235 -0.002801 0.113549 7.409529 -3.025704 3.191834 5.630301 0.794594 12.739936 -6.998986 1.448221 0.008190 -0.043191 0.002293
-11.876004 89.100929 -4.293638 -135.873478 -6.160599 0.235814 1.010910 1.854331 0.160604 0.574561 1.058472 0.057842 0.718399 1.322995 0.073964 0.574561 1.058472 0.057842 -0.113437 22.320864 0.092526 -0.229757 5.656709 0.197641 -0.826470 2.230274 1.210213 1.543168 -0.846582 86.190865 7.219851 8.701043 4.635133 -0.911090 -4.741911 -1.640512 -1.197034 2.072624 0.613215 -4.381333 -2.111747 -89.465941 -1.444470 3.876292 -0.686477 -0.307108 -1.485446 1.646373 -2.268997 9.634582 2.335129 0.488650 2.341294 -1.100824 8.440396 -4.801063 -2.306357 -0.002462 0.061483 -0.003586 0.111616 7.407109 -3.024991 3.188067 5.629203 0.796252 12.745265 -7.003198 1.447171 0.008151 -0.042153 0.001677
-11.878427 89.100414 -4.296908 -135.877320 -6.153769 0.235609 1.013114 1.849452 0.159863 0.575958 1.055676 0.058077 0.720146 1.319500 0.074257 0.575958 1.055676 0.058077 -0.115140 22.320813 0.093456 -0.233083 5.656623 0.199780 -0.830067 2.231113 1.214940 1.540313 -0.849542 86.189297 7.214044 8.706283 4.642408 -0.908353 -4.744656 -1.646439 -1.202962 2.073290 0.611699 -4.381462 -2.112400 -89.466218 -1.442538 3.869190 -0.680056 -0.309052 -1.483665 1.641473 -2.266180 9.633424 2.334083 0.490187 2.333797 -1.099151 8.442041 -4.799913 -2.306678 -0.003364 0.061852 -0.002776 0.111677 7.404156 -3.027177 3.185848 5.628500 0.797216 12.756039 -7.007060 1.448300 0.007816 -0.041751 0.000466
-11.880848 89.099968 -4.299885 -135.882527 -6.147570 0.236766 1.015431 1.844864 0.159436 0.577306 1.052883 0.058227 0.721830 1.316007 0.074444 0.577306 1.052883 0.058227 -0.117057 22.320888 0.094527 -0.236833 5.656769 0.202229 -0.831306 2.234014 1.217499 1.536747 -0.853438 86.189249 7.209316 8.708802 4.647279 -0.906776 -4.746702 -1.651309 -1.206648 2.075249 0.610966 -4.385566 -2.113106 -89.466902 -1.441370 3.859584 -0.676218 -0.312388 -1.481931 1.636547 -2.262746 9.632406 2.330918 0.495458 2.327038 -1.095323 8.439894 -4.799539 -2.309062 -0.003877 0.062673 -0.001492 0.112218 7.401977 -3.032440 3.184377 5.626641 0.799264 12.772323 -7.009743 1.449050 0.007891 -0.041760 -0.000069
-11.882898 89.099567 -4.302376 -135.887207 -6.139531 0.238684 1.018078 1.840059 0.159968 0.578864 1.050034 0.058621 0.723779 1.312446 0.074937 0.578864 1.050034 0.058621 -0.119919 22.320276 0.095075 -0.242149 5.655642 0.203993 -0.834048 2.237247 1.217458 1.533290 -0.857381 86.188494 7.206858 8.708652 4.653362 -0.904270 -4.747126 -1.656524 -1.210577 2.076040 0.609655 -4.394454 -2.113295 -89.467336 -1.441652 3.845936 -0.677951 -0.312484 -1.479734 1.635978 -2.260425 9.628122 2.327315 0.506410 2.322581 -1.091354 8.431174 -4.799602 -2.311539 -0.004328 0.063105 -0.000677 0.112937 7.399374 -3.038045 3.181792 5.621822 0.803547 12.781651 -7.010457 1.447664 0.008069 -0.041493 0.000120
-11.884361 89.099221 -4.304552 -135.891971 -6.129273 0.240346 1.021571 1.834844 0.160133 0.581021 1.047087 0.058753 0.726475 1.308762 0.075104 0.581021 1.047087 0.058753 -0.123010 22.318967 0.096338 -0.248073 5.653223 0.207109 -0.842322 2.240305 1.218673 1.532497 -0.862094 86.188617 7.205326 8.711292 4.660285 -0.901762 -4.750018 -1.663977 -1.215473 2.074690 0.610687 -4.401470 -2.111151 -89.467602 -1.442884 3.835172 -0.682754 -0.311455 -1.476881 1.638234 -2.256349 9.619742 2.325442 0.516691 2.320938 -1.088532 8.420423 -4.799788 -2.314177 -0.004798 0.062913 0.000095 0.115781 7.394066 -3.041714 3.178568 5.618273 0.809290 12.781013 -7.011166 1.444293 0.007813 -0.041204 0.000487
-11.885295 89.098977 -4.306961 -135.898325 -6.119171 0.240417 1.026340 1.830051 0.159998 0.583811 1.044278 0.058847 0.729962 1.305249 0.075225 0.583811 1.044278 0.058847 -0.125662 22.317445 0.098249 -0.253379 5.650408 0.211278 -0.854942 2.242792 1.221636 1.534358 -0.867709 86.190526 7.202413 8.717438 4.665880 -0.899883 -4.755739 -1.673425 -1.221019 2.073168 0.612977 -4.405069 -2.108631 -89.467563 -1.443688 3.830260 -0.686451 -0.313684 -1.474221 1.640588 -2.247923 9.610384 2.325647 0.521273 2.320599 -1.086499 8.417259 -4.799630 -2.316480 -0.005168 0.062416 0.000684 0.121074 7.386994 -3.042971 3.177029 5.618604 0.814867 12.779289 -7.013442 1.440210 0.007632 -0.041182 0.000835
-11.885923 89.098872 -4.310012 -135.906523 -6.111657 0.238584 1.031821 1.826210 0.160995 0.586954 1.041890 0.059583 0.733892 1.302263 0.076150 0.586954 1.041890 0.059583 -0.128901 22.316212 0.099334 -0.259522 5.648131 0.214112 -0.866887 2.245314 1.223555 1.535438 -0.872959 86.191959 7.197827 8.722275 4.669918 -0.896917 -4.757488 -1.681521 -1.227695 2.072589 0.612767 -4.406996 -2.107951 -89.466759 -1.441842 3.825843 -0.687267 -0.317583 -1.471979 1.641667 -2.235903 9.603499 2.328180 0.522929 2.320484 -1.084653 8.417931 -4.799398 -2.318686 -0.005603 0.061758 0.000909 0.128680 7.381833 -3.043774 3.175386 5.619436 0.819173 12.792141 -7.016445 1.435958 0.008631 -0.041195 0.002225
